<?xml version="1.0" encoding="UTF-8"?>
<svg xmlns="http://www.w3.org/2000/svg" viewBox="0 0 560 498" width="560" height="498" role="img" aria-label="VARAS-OneMind overview">
<style>text{font-family:-apple-system, BlinkMacSystemFont, 'Segoe UI', Roboto, 'Helvetica Neue', Arial, sans-serif;}</style>
  <rect x="0" y="0" width="560" height="498" rx="0" fill="#FFFFFF"/>
  <rect x="120" y="20" width="320" height="50" rx="10" fill="#666666"/>
  <text x="280" y="42" font-size="15" font-weight="600" fill="#FFFFFF" text-anchor="middle">Task Input</text>
  <text x="280" y="61" font-size="12.5" font-weight="400" fill="#FFFFFF" text-anchor="middle" fill-opacity="0.9">Vulnerability Information</text>
  <line x1="280.0" y1="72.0" x2="280.0" y2="84.5" stroke="#98A2B3" stroke-width="1.6" stroke-linecap="round"/><path d="M 280.0 90.0 L 277.7 84.5 L 282.3 84.5 Z" fill="#98A2B3"/>
  <rect x="24" y="92" width="512" height="272" rx="14" fill="none" stroke="#7570B3" stroke-width="1.6"/>
  <text x="280" y="122" font-size="15" font-weight="600" fill="#7570B3" text-anchor="middle">VARAS-OneMind</text>
  <rect x="44" y="136" width="472" height="54" rx="10" fill="#EFF2F8"/>
  <text x="280" y="158" font-size="15" font-weight="600" fill="#2F3648" text-anchor="middle">Stage-Governed Workflow</text>
  <text x="280" y="180" font-size="12.5" font-weight="400" fill="#5F6979" text-anchor="middle">Triage → Primitive → Chaining → Remote</text>
  <rect x="44" y="208" width="214" height="70" rx="10" fill="#7570B3"/>
  <text x="151" y="233" font-size="15" font-weight="600" fill="#FFFFFF" text-anchor="middle">Operator</text>
  <text x="151" y="255" font-size="11.5" font-weight="400" fill="#FFFFFF" text-anchor="middle" fill-opacity="0.92">Plans and delegates</text>
  <text x="151" y="271" font-size="11.5" font-weight="400" fill="#FFFFFF" text-anchor="middle" fill-opacity="0.92">Integrates the results</text>
  <rect x="302" y="208" width="214" height="70" rx="10" fill="#1B9E77"/>
  <text x="409" y="233" font-size="15" font-weight="600" fill="#FFFFFF" text-anchor="middle">Executor</text>
  <text x="409" y="255" font-size="11.5" font-weight="400" fill="#FFFFFF" text-anchor="middle" fill-opacity="0.92">Runs bounded work</text>
  <text x="409" y="271" font-size="11.5" font-weight="400" fill="#FFFFFF" text-anchor="middle" fill-opacity="0.92">In a fresh context</text>
  <line x1="262.0" y1="228.0" x2="292.5" y2="228.0" stroke="#98A2B3" stroke-width="1.6" stroke-linecap="round"/><path d="M 298.0 228.0 L 292.5 230.3 L 292.5 225.7 Z" fill="#98A2B3"/>
  <line x1="298.0" y1="248.0" x2="267.5" y2="248.0" stroke="#98A2B3" stroke-width="1.6" stroke-linecap="round"/><path d="M 262.0 248.0 L 267.5 245.7 L 267.5 250.3 Z" fill="#98A2B3"/>
  <rect x="44" y="294" width="472" height="54" rx="10" fill="#D95F02"/>
  <text x="280" y="316" font-size="15" font-weight="600" fill="#FFFFFF" text-anchor="middle">Exploit Memory</text>
  <text x="280" y="335" font-size="12" font-weight="400" fill="#FFFFFF" text-anchor="middle" fill-opacity="0.9">Organized around Capabilities, Branches and Evidence</text>
  <rect x="24" y="380" width="512" height="98" rx="14" fill="none" stroke="#C4CBD7" stroke-width="1.5" stroke-dasharray="7 5"/>
  <text x="280" y="403" font-size="13.5" font-weight="600" fill="#6B7280" text-anchor="middle">Capability Chain</text>
  <rect x="44" y="414" width="100" height="48" rx="9" fill="#E7298A"/>
  <rect x="168" y="414" width="100" height="48" rx="9" fill="#E7298A"/>
  <rect x="292" y="414" width="100" height="48" rx="9" fill="#E7298A"/>
  <rect x="416" y="414" width="100" height="48" rx="9" fill="#E6AB02"/>
  <text x="94.0" y="432" font-size="13.5" font-weight="600" fill="#FFFFFF" text-anchor="middle">C0</text>
  <text x="94.0" y="448" font-size="10" font-weight="400" fill="#FFFFFF" text-anchor="middle" fill-opacity="0.9">Initial Primitive</text>
  <text x="218.0" y="441" font-size="13.5" font-weight="600" fill="#FFFFFF" text-anchor="middle">C1</text>
  <text x="342.0" y="441" font-size="13.5" font-weight="600" fill="#FFFFFF" text-anchor="middle">C2 …</text>
  <text x="466.0" y="441" font-size="14" font-weight="600" fill="#3E2C00" text-anchor="middle">Flag</text>
  <line x1="144.0" y1="438.0" x2="163.0" y2="438.0" stroke="#98A2B3" stroke-width="1.6" stroke-linecap="round"/><path d="M 168.0 438.0 L 163.0 440.1 L 163.0 435.9 Z" fill="#98A2B3"/>
  <line x1="268.0" y1="438.0" x2="287.0" y2="438.0" stroke="#98A2B3" stroke-width="1.6" stroke-linecap="round"/><path d="M 292.0 438.0 L 287.0 440.1 L 287.0 435.9 Z" fill="#98A2B3"/>
  <line x1="392.0" y1="438.0" x2="411.0" y2="438.0" stroke="#98A2B3" stroke-width="1.6" stroke-linecap="round"/><path d="M 416.0 438.0 L 411.0 440.1 L 411.0 435.9 Z" fill="#98A2B3"/>
</svg>
